<svg xmlns="http://www.w3.org/2000/svg" width="19.083" height="19.083" viewBox="0 0 19.083 19.083"><defs><style>.a{fill:#fff;}</style></defs><path class="a" d="M9.54,0a9.542,9.542,0,1,0,9.543,9.542A9.552,9.552,0,0,0,9.54,0Zm8.291,5.994-.58-.172-.728-.862-.216.027.44.627-.368.4-.037-.367a8.259,8.259,0,0,1-.513-.734,10.252,10.252,0,0,0-1.382,1.175l1.1-.027.242.35,1.24.054,1.068.255a8.971,8.971,0,0,1-.658,7.155l-.786.109-.567-1.334-.161-2.748-2.142.04-.93-1.536.93-2.1.484-.2-.444-.283.081-.728.727-.243-.04-.566,1.213-1.091-.036-.157a9.015,9.015,0,0,1,2.059,2.956ZM8.772,18.522l-.04,0,.044-.045ZM12.648,1.084c.124.045.25.086.372.136l-.606.195ZM15,3.6l-.728.4-.122-.485-.4.162-.2-.526.728-.93ZM11.236.686,10.151,2.344,9.3,1.536l-.07-1c.1,0,.2-.016.309-.016a9.076,9.076,0,0,1,1.7.165ZM8.229.628,7.968,1.86,6.633,1.213l-.041-.186a8.928,8.928,0,0,1,1.637-.4ZM5.138,1.677l-.244.345L6.27,3.356l.444-.444L6.633,1.9l1.5.365,1.05,2.1L7,5.5,6.27,6.792l.122.646L4.733,7.076l-.162.849.971-.162.607,1.253.526.122.889-.283,1.981.93,1.617,1.052-.567,1.738L8.574,14.393l-.971,2.1.162.567-.848-.607.242-4.285L6.23,10.552l.362-1.091L6.109,9.38l-.931-.728L3.723,8.126,1.7,5.741,1.72,5.07A9.088,9.088,0,0,1,5.137,1.677ZM7.563,8.288,5.905,7.843l1.052-.122Z" transform="translate(0)"/></svg>